# xmcd CD database file
#
# Track frame offsets:
#	150
#	13170
#	29341
#	45696
#	59471
#	74108
#	87558
#	102125
#	119300
#	132750
#	146819
#	162047
#	174238
#	188728
#	201194
#	215001
#	227238
#	239749
#	253838
#	266556
#	280361
#	293519
#	307378
#	317780
#	331181
#
# Disc length: 4607 seconds
#
# Revision: 2
# Processed by: cddbd v1.5.2PL0 Copyright (c) Steve Scherf et al.
# Submitted via: CDex 1.51
#
DISCID=8a11fd19
DTITLE=Various Artist - Let Me Tell You About The Blues - Detroit 1958-52
DYEAR=2010
DGENRE=Blues
TTITLE0=Calvin Frazier - She's A Double Crossing Woman
TTITLE1=Sampson Pittman - Highway 61 Blues
TTITLE2=Robert Richard - Cadillac Woman
TTITLE3=Detroit Count - Hastings Street Opera - Part 1
TTITLE4=Walter Mitchell - Stop Messing Around
TTITLE5=Slim Pickens - Notoriety Woman
TTITLE6=Robert Richard - Root Hog
TTITLE7=Walter Mitchell - Pet Milk Blues
TTITLE8=Sylvester Cotton - Sak-Relation Blues
TTITLE9=Joe Von Battle - Lookin' For My Woman
TTITLE10=Detroit Count - Hastings Street Opera - Part 2
TTITLE11=Sylvester Cotton - Ugly Woman Blues
TTITLE12=John Lee Hooker - Henry's Swing Club
TTITLE13=James Taylor - Little Bitty Woman
TTITLE14=Andrew Dunham - Sweet Lucy
TTITLE15=Baby Boy Warren - My Special Friend Blues
TTITLE16=Sylvester Cotton - Stormy Weather Blues
TTITLE17=John Brim Combo - Strange Man
TTITLE18=Big Maceo - Worried Life Blues No 2
TTITLE19=Andrew Dunham - Hattie May
TTITLE20=Big Maceo - Without You My Life Don't Mean A Thing
TTITLE21=John Lee Hooker - Never Satisfied
TTITLE22=Eddie Kirkland - That's All Right
TTITLE23=John Brim Combo - Mean Man Blues
TTITLE24=Eddie Burns - Where Did You Stay Last Night
EXTD=YEAR: 2010
EXTT0=
EXTT1=
EXTT2=
EXTT3=
EXTT4=
EXTT5=
EXTT6=
EXTT7=
EXTT8=
EXTT9=
EXTT10=
EXTT11=
EXTT12=
EXTT13=
EXTT14=
EXTT15=
EXTT16=
EXTT17=
EXTT18=
EXTT19=
EXTT20=
EXTT21=
EXTT22=
EXTT23=
EXTT24=
PLAYORDER=
